<svg width="54" height="50" viewBox="0 0 54 50" fill="#53C1DE" xmlns="http://www.w3.org/2000/svg">
<path d="M44.5561 32.5083C44.2333 32.6208 43.902 32.7296 43.5644 32.835C42.8172 30.3448 41.8087 27.6968 40.5745 24.961C41.7522 22.2903 42.7218 19.6762 43.4481 17.2021C44.0521 17.3861 44.6383 17.5801 45.2032 17.7849C50.6671 19.7649 54 22.6923 54 24.948C54 27.3507 50.4006 30.4698 44.5561 32.5083ZM42.1311 37.5667C42.722 40.7085 42.8064 43.5491 42.415 45.7697C42.0633 47.7651 41.3561 49.0955 40.4817 49.6283C38.6209 50.762 34.6417 49.2883 30.3502 45.4009C29.8582 44.9553 29.3627 44.4794 28.8655 43.9758C30.5293 42.0604 32.192 39.8337 33.8149 37.3608C36.6692 37.0942 39.366 36.6583 41.8115 36.0632C41.9319 36.5746 42.0389 37.0762 42.1311 37.5667ZM17.6074 49.4323C15.7894 50.1082 14.3414 50.1275 13.4662 49.5963C11.6037 48.4655 10.8295 44.1006 11.8856 38.2455C12.0066 37.575 12.1506 36.8862 12.3165 36.1821C14.7352 36.7451 17.4122 37.1502 20.2734 37.3944C21.9072 39.8143 23.618 42.0385 25.342 43.9861C24.9653 44.3689 24.5901 44.7333 24.217 45.0767C21.9262 47.1846 19.6305 48.6801 17.6074 49.4323ZM9.0903 32.4936C6.21122 31.4578 3.83358 30.1115 2.20381 28.6424C0.739369 27.3222 0 26.0115 0 24.948C0 22.6848 3.2054 19.7981 8.55145 17.836C9.20012 17.5979 9.87917 17.3736 10.5839 17.1628C11.3227 19.6928 12.2919 22.3379 13.4616 25.0126C12.2768 27.7271 11.2938 30.4144 10.5477 32.974C10.0453 32.822 9.55862 32.662 9.0903 32.4936ZM11.9453 12.0366C10.8357 6.06705 11.5726 1.56387 13.4271 0.433869C15.4024 -0.769923 19.7704 0.946428 24.3742 5.24948C24.6684 5.52451 24.9639 5.81238 25.2601 6.1102C23.5446 8.04925 21.8495 10.2568 20.2302 12.6624C17.4533 12.9333 14.7952 13.3686 12.3512 13.9514C12.1975 13.3008 12.0614 12.6615 11.9453 12.0366ZM37.4145 18.6567C36.8302 17.5944 36.2304 16.5572 35.619 15.5484C37.5029 15.7991 39.3078 16.1318 41.0029 16.5391C40.494 18.2559 39.8597 20.0509 39.1131 21.891C38.5775 20.8207 38.011 19.7414 37.4145 18.6567ZM27.0282 8.00777C28.1917 9.33458 29.3568 10.816 30.5028 12.4232C29.348 12.3658 28.1788 12.3359 27 12.3359C25.8324 12.3359 24.6719 12.3651 23.5242 12.4216C24.6714 10.8292 25.8466 9.34985 27.0282 8.00777ZM16.5754 18.6751C15.9918 19.7403 15.4358 20.8137 14.9087 21.889C14.1741 20.0553 13.5457 18.2521 13.0324 16.511C14.7171 16.1141 16.5135 15.7897 18.3854 15.5437C17.7653 16.5619 17.1606 17.6067 16.5754 18.6748V18.6751ZM18.4393 34.5417C16.5053 34.3146 14.6819 34.0068 12.9977 33.621C13.5192 31.8487 14.1614 30.007 14.9115 28.1338C15.44 29.2084 15.9982 30.2822 16.5854 31.3498H16.5855C17.1836 32.4374 17.8033 33.5028 18.4393 34.5417ZM27.098 42.0755C25.9025 40.7177 24.7101 39.2158 23.5455 37.6002C24.676 37.6469 25.8286 37.6708 27 37.6708C28.2035 37.6708 29.3933 37.6422 30.5643 37.5874C29.4145 39.232 28.2536 40.7363 27.098 42.0755ZM39.1372 28.0383C39.9263 29.9318 40.5916 31.7639 41.1198 33.5059C39.4079 33.917 37.5595 34.2481 35.612 34.4942C36.225 33.4717 36.83 32.4167 37.4246 31.3315C38.0261 30.2336 38.5972 29.134 39.1372 28.0383ZM35.2397 30.005C34.3167 31.6896 33.3691 33.2978 32.4072 34.8158C30.6551 34.9477 28.845 35.0156 27 35.0156C25.1626 35.0156 23.3753 34.9555 21.6542 34.8379C20.6535 33.3 19.6853 31.6871 18.7682 30.0195H18.7684C17.8537 28.3565 17.0119 26.6794 16.2491 25.0118C17.0117 23.3402 17.8513 21.6613 18.7607 20.0012L18.7605 20.0015C19.6724 18.3371 20.632 16.732 21.6235 15.2037C23.3795 15.064 25.1802 14.9911 26.9999 14.9911H27C28.828 14.9911 30.631 15.0646 32.3865 15.2055C33.3628 16.7226 34.316 18.3225 35.2314 19.9872C36.1572 21.6705 37.0076 23.3383 37.7768 24.974C37.01 26.6378 36.1614 28.3224 35.2397 30.005ZM40.443 0.354877C42.4202 1.55513 43.1891 6.39574 41.9469 12.7433C41.8676 13.1483 41.7784 13.5609 41.6815 13.9789C39.2319 13.384 36.5718 12.9412 33.7868 12.6662C32.1644 10.2341 30.4831 8.02315 28.7956 6.10898C29.2493 5.64953 29.7023 5.21142 30.1535 4.79799C34.5126 0.804708 38.5868 -0.771915 40.443 0.354877Z" fill="white"/>
<path d="M25.7144 18.421C28.5547 18.421 30.8572 20.7774 30.8572 23.6842C30.8572 26.5909 28.5547 28.9473 25.7144 28.9473C22.8741 28.9473 20.5715 26.5909 20.5715 23.6842C20.5715 20.7774 22.8741 18.421 25.7144 18.421Z" fill="#53C1DE"/>
</svg>
